<svg width="512" height="512" viewBox="0 0 512 512" fill="none" xmlns="http://www.w3.org/2000/svg">
  <defs>
    <linearGradient id="paint0_linear" x1="0" y1="0" x2="512" y2="512" gradientUnits="userSpaceOnUse">
      <stop stop-color="#FF4D4D"/>
      <stop offset="1" stop-color="#800000"/>
    </linearGradient>
    <filter id="shadow" x="-20%" y="-20%" width="140%" height="140%">
      <feGaussianBlur in="SourceAlpha" stdDeviation="15"/>
      <feOffset dx="0" dy="10" result="offsetblur"/>
      <feFlood flood-color="#FF0000" flood-opacity="0.3"/>
      <feComposite in2="offsetblur" operator="in"/>
      <feMerge>
        <feMergeNode/>
        <feMergeNode in="SourceGraphic"/>
      </feMerge>
    </filter>
  </defs>
  
  <!-- Background Shield/Shape -->
  <rect x="40" y="40" width="432" height="432" rx="100" fill="#0A0A0C" stroke="url(#paint0_linear)" stroke-width="8"/>
  
  <!-- The Mephisto Envelope Logo -->
  <g filter="url(#shadow)">
    <!-- Envelope Main Body -->
    <path d="M120 180C120 168.954 128.954 160 140 160H372C383.046 160 392 168.954 392 180V332C392 343.046 383.046 352 372 352H140C128.954 352 120 343.046 120 332V180Z" fill="url(#paint0_linear)"/>
    
    <!-- Envelope Flap (The Horns/M Shape) -->
    <path d="M120 180L240 280C248.889 287.407 263.111 287.407 272 280L392 180V160H120V180Z" fill="#0A0A0C" fill-opacity="0.4"/>
    
    <!-- Horn Details -->
    <path d="M220 130C210 110 180 100 160 110C170 130 190 150 210 160" stroke="url(#paint0_linear)" stroke-width="12" stroke-linecap="round"/>
    <path d="M292 130C302 110 332 100 352 110C342 130 322 150 302 160" stroke="url(#paint0_linear)" stroke-width="12" stroke-linecap="round"/>
  </g>
  
  <!-- Inner Glow -->
  <path d="M140 330L256 240L372 330" stroke="white" stroke-opacity="0.1" stroke-width="4" stroke-linecap="round" fill="none"/>
</svg>
